<svg xmlns="http://www.w3.org/2000/svg" viewBox="0 0 780 124" width="100%">
  <rect x="20" y="20" width="11" height="11" fill="#FCEBEB" rx="1"/>
  <rect x="68" y="20" width="11" height="11" fill="#FCEBEB" rx="1"/>
  <rect x="20" y="32" width="11" height="11" fill="#FCEBEB" rx="1"/>
  <rect x="68" y="32" width="11" height="11" fill="#FCEBEB" rx="1"/>
  <rect x="20" y="44" width="11" height="11" fill="#FCEBEB" rx="1"/>
  <rect x="68" y="44" width="11" height="11" fill="#FCEBEB" rx="1"/>
  <rect x="20" y="56" width="11" height="11" fill="#FCEBEB" rx="1"/>
  <rect x="44" y="56" width="11" height="11" fill="#FCEBEB" rx="1"/>
  <rect x="68" y="56" width="11" height="11" fill="#FCEBEB" rx="1"/>
  <rect x="20" y="68" width="11" height="11" fill="#FCEBEB" rx="1"/>
  <rect x="44" y="68" width="11" height="11" fill="#FCEBEB" rx="1"/>
  <rect x="68" y="68" width="11" height="11" fill="#FCEBEB" rx="1"/>
  <rect x="20" y="80" width="11" height="11" fill="#FCEBEB" rx="1"/>
  <rect x="32" y="80" width="11" height="11" fill="#FCEBEB" rx="1"/>
  <rect x="56" y="80" width="11" height="11" fill="#FCEBEB" rx="1"/>
  <rect x="68" y="80" width="11" height="11" fill="#FCEBEB" rx="1"/>
  <rect x="20" y="92" width="11" height="11" fill="#FCEBEB" rx="1"/>
  <rect x="68" y="92" width="11" height="11" fill="#FCEBEB" rx="1"/>
  <rect x="100" y="44" width="11" height="11" fill="#F7C1C1" rx="1"/>
  <rect x="112" y="44" width="11" height="11" fill="#F7C1C1" rx="1"/>
  <rect x="124" y="44" width="11" height="11" fill="#F7C1C1" rx="1"/>
  <rect x="88" y="56" width="11" height="11" fill="#F7C1C1" rx="1"/>
  <rect x="136" y="56" width="11" height="11" fill="#F7C1C1" rx="1"/>
  <rect x="88" y="68" width="11" height="11" fill="#F7C1C1" rx="1"/>
  <rect x="100" y="68" width="11" height="11" fill="#F7C1C1" rx="1"/>
  <rect x="112" y="68" width="11" height="11" fill="#F7C1C1" rx="1"/>
  <rect x="124" y="68" width="11" height="11" fill="#F7C1C1" rx="1"/>
  <rect x="136" y="68" width="11" height="11" fill="#F7C1C1" rx="1"/>
  <rect x="88" y="80" width="11" height="11" fill="#F7C1C1" rx="1"/>
  <rect x="100" y="92" width="11" height="11" fill="#F7C1C1" rx="1"/>
  <rect x="112" y="92" width="11" height="11" fill="#F7C1C1" rx="1"/>
  <rect x="124" y="92" width="11" height="11" fill="#F7C1C1" rx="1"/>
  <rect x="156" y="20" width="11" height="11" fill="#F7C1C1" rx="1"/>
  <rect x="156" y="32" width="11" height="11" fill="#F7C1C1" rx="1"/>
  <rect x="156" y="44" width="11" height="11" fill="#F7C1C1" rx="1"/>
  <rect x="168" y="44" width="11" height="11" fill="#F7C1C1" rx="1"/>
  <rect x="180" y="44" width="11" height="11" fill="#F7C1C1" rx="1"/>
  <rect x="192" y="44" width="11" height="11" fill="#F7C1C1" rx="1"/>
  <rect x="156" y="56" width="11" height="11" fill="#F7C1C1" rx="1"/>
  <rect x="204" y="56" width="11" height="11" fill="#F7C1C1" rx="1"/>
  <rect x="156" y="68" width="11" height="11" fill="#F7C1C1" rx="1"/>
  <rect x="204" y="68" width="11" height="11" fill="#F7C1C1" rx="1"/>
  <rect x="156" y="80" width="11" height="11" fill="#F7C1C1" rx="1"/>
  <rect x="204" y="80" width="11" height="11" fill="#F7C1C1" rx="1"/>
  <rect x="156" y="92" width="11" height="11" fill="#F7C1C1" rx="1"/>
  <rect x="168" y="92" width="11" height="11" fill="#F7C1C1" rx="1"/>
  <rect x="180" y="92" width="11" height="11" fill="#F7C1C1" rx="1"/>
  <rect x="192" y="92" width="11" height="11" fill="#F7C1C1" rx="1"/>
  <rect x="236" y="20" width="11" height="11" fill="#E24B4A" rx="1"/>
  <rect x="248" y="20" width="11" height="11" fill="#E24B4A" rx="1"/>
  <rect x="260" y="20" width="11" height="11" fill="#E24B4A" rx="1"/>
  <rect x="224" y="32" width="11" height="11" fill="#E24B4A" rx="1"/>
  <rect x="272" y="32" width="11" height="11" fill="#E24B4A" rx="1"/>
  <rect x="224" y="44" width="11" height="11" fill="#E24B4A" rx="1"/>
  <rect x="224" y="56" width="11" height="11" fill="#E24B4A" rx="1"/>
  <rect x="248" y="56" width="11" height="11" fill="#E24B4A" rx="1"/>
  <rect x="260" y="56" width="11" height="11" fill="#E24B4A" rx="1"/>
  <rect x="272" y="56" width="11" height="11" fill="#E24B4A" rx="1"/>
  <rect x="224" y="68" width="11" height="11" fill="#E24B4A" rx="1"/>
  <rect x="272" y="68" width="11" height="11" fill="#E24B4A" rx="1"/>
  <rect x="224" y="80" width="11" height="11" fill="#E24B4A" rx="1"/>
  <rect x="272" y="80" width="11" height="11" fill="#E24B4A" rx="1"/>
  <rect x="236" y="92" width="11" height="11" fill="#E24B4A" rx="1"/>
  <rect x="248" y="92" width="11" height="11" fill="#E24B4A" rx="1"/>
  <rect x="260" y="92" width="11" height="11" fill="#E24B4A" rx="1"/>
  <rect x="292" y="20" width="11" height="11" fill="#E24B4A" rx="1"/>
  <rect x="292" y="32" width="11" height="11" fill="#E24B4A" rx="1"/>
  <rect x="292" y="44" width="11" height="11" fill="#E24B4A" rx="1"/>
  <rect x="304" y="44" width="11" height="11" fill="#E24B4A" rx="1"/>
  <rect x="316" y="44" width="11" height="11" fill="#E24B4A" rx="1"/>
  <rect x="328" y="44" width="11" height="11" fill="#E24B4A" rx="1"/>
  <rect x="292" y="56" width="11" height="11" fill="#E24B4A" rx="1"/>
  <rect x="340" y="56" width="11" height="11" fill="#E24B4A" rx="1"/>
  <rect x="292" y="68" width="11" height="11" fill="#E24B4A" rx="1"/>
  <rect x="340" y="68" width="11" height="11" fill="#E24B4A" rx="1"/>
  <rect x="292" y="80" width="11" height="11" fill="#E24B4A" rx="1"/>
  <rect x="340" y="80" width="11" height="11" fill="#E24B4A" rx="1"/>
  <rect x="292" y="92" width="11" height="11" fill="#E24B4A" rx="1"/>
  <rect x="340" y="92" width="11" height="11" fill="#E24B4A" rx="1"/>
  <rect x="372" y="44" width="11" height="11" fill="#E24B4A" rx="1"/>
  <rect x="384" y="44" width="11" height="11" fill="#E24B4A" rx="1"/>
  <rect x="396" y="44" width="11" height="11" fill="#E24B4A" rx="1"/>
  <rect x="360" y="56" width="11" height="11" fill="#E24B4A" rx="1"/>
  <rect x="408" y="56" width="11" height="11" fill="#E24B4A" rx="1"/>
  <rect x="360" y="68" width="11" height="11" fill="#E24B4A" rx="1"/>
  <rect x="408" y="68" width="11" height="11" fill="#E24B4A" rx="1"/>
  <rect x="360" y="80" width="11" height="11" fill="#E24B4A" rx="1"/>
  <rect x="408" y="80" width="11" height="11" fill="#E24B4A" rx="1"/>
  <rect x="372" y="92" width="11" height="11" fill="#E24B4A" rx="1"/>
  <rect x="384" y="92" width="11" height="11" fill="#E24B4A" rx="1"/>
  <rect x="396" y="92" width="11" height="11" fill="#E24B4A" rx="1"/>
  <rect x="440" y="44" width="11" height="11" fill="#F09595" rx="1"/>
  <rect x="452" y="44" width="11" height="11" fill="#F09595" rx="1"/>
  <rect x="464" y="44" width="11" height="11" fill="#F09595" rx="1"/>
  <rect x="476" y="44" width="11" height="11" fill="#F09595" rx="1"/>
  <rect x="428" y="56" width="11" height="11" fill="#F09595" rx="1"/>
  <rect x="440" y="68" width="11" height="11" fill="#F09595" rx="1"/>
  <rect x="452" y="68" width="11" height="11" fill="#F09595" rx="1"/>
  <rect x="464" y="68" width="11" height="11" fill="#F09595" rx="1"/>
  <rect x="476" y="80" width="11" height="11" fill="#F09595" rx="1"/>
  <rect x="428" y="92" width="11" height="11" fill="#F09595" rx="1"/>
  <rect x="440" y="92" width="11" height="11" fill="#F09595" rx="1"/>
  <rect x="452" y="92" width="11" height="11" fill="#F09595" rx="1"/>
  <rect x="464" y="92" width="11" height="11" fill="#F09595" rx="1"/>
  <rect x="508" y="20" width="11" height="11" fill="#F09595" rx="1"/>
  <rect x="508" y="32" width="11" height="11" fill="#F09595" rx="1"/>
  <rect x="496" y="44" width="11" height="11" fill="#F09595" rx="1"/>
  <rect x="508" y="44" width="11" height="11" fill="#F09595" rx="1"/>
  <rect x="520" y="44" width="11" height="11" fill="#F09595" rx="1"/>
  <rect x="532" y="44" width="11" height="11" fill="#F09595" rx="1"/>
  <rect x="544" y="44" width="11" height="11" fill="#F09595" rx="1"/>
  <rect x="508" y="56" width="11" height="11" fill="#F09595" rx="1"/>
  <rect x="508" y="68" width="11" height="11" fill="#F09595" rx="1"/>
  <rect x="508" y="80" width="11" height="11" fill="#F09595" rx="1"/>
  <rect x="520" y="92" width="11" height="11" fill="#F09595" rx="1"/>
  <rect x="532" y="92" width="11" height="11" fill="#F09595" rx="1"/>
  <rect x="588" y="20" width="11" height="11" fill="#F09595" rx="1"/>
  <rect x="576" y="44" width="11" height="11" fill="#F09595" rx="1"/>
  <rect x="588" y="44" width="11" height="11" fill="#F09595" rx="1"/>
  <rect x="588" y="56" width="11" height="11" fill="#F09595" rx="1"/>
  <rect x="588" y="68" width="11" height="11" fill="#F09595" rx="1"/>
  <rect x="588" y="80" width="11" height="11" fill="#F09595" rx="1"/>
  <rect x="576" y="92" width="11" height="11" fill="#F09595" rx="1"/>
  <rect x="588" y="92" width="11" height="11" fill="#F09595" rx="1"/>
  <rect x="600" y="92" width="11" height="11" fill="#F09595" rx="1"/>
  <rect x="632" y="44" width="11" height="11" fill="#E24B4A" rx="1"/>
  <rect x="644" y="44" width="11" height="11" fill="#E24B4A" rx="1"/>
  <rect x="656" y="44" width="11" height="11" fill="#E24B4A" rx="1"/>
  <rect x="668" y="44" width="11" height="11" fill="#E24B4A" rx="1"/>
  <rect x="632" y="56" width="11" height="11" fill="#E24B4A" rx="1"/>
  <rect x="680" y="56" width="11" height="11" fill="#E24B4A" rx="1"/>
  <rect x="632" y="68" width="11" height="11" fill="#E24B4A" rx="1"/>
  <rect x="680" y="68" width="11" height="11" fill="#E24B4A" rx="1"/>
  <rect x="632" y="80" width="11" height="11" fill="#E24B4A" rx="1"/>
  <rect x="680" y="80" width="11" height="11" fill="#E24B4A" rx="1"/>
  <rect x="632" y="92" width="11" height="11" fill="#E24B4A" rx="1"/>
  <rect x="680" y="92" width="11" height="11" fill="#E24B4A" rx="1"/>
  <rect x="712" y="44" width="11" height="11" fill="#E24B4A" rx="1"/>
  <rect x="724" y="44" width="11" height="11" fill="#E24B4A" rx="1"/>
  <rect x="736" y="44" width="11" height="11" fill="#E24B4A" rx="1"/>
  <rect x="748" y="44" width="11" height="11" fill="#E24B4A" rx="1"/>
  <rect x="700" y="56" width="11" height="11" fill="#E24B4A" rx="1"/>
  <rect x="748" y="56" width="11" height="11" fill="#E24B4A" rx="1"/>
  <rect x="712" y="68" width="11" height="11" fill="#E24B4A" rx="1"/>
  <rect x="724" y="68" width="11" height="11" fill="#E24B4A" rx="1"/>
  <rect x="736" y="68" width="11" height="11" fill="#E24B4A" rx="1"/>
  <rect x="748" y="68" width="11" height="11" fill="#E24B4A" rx="1"/>
  <rect x="748" y="80" width="11" height="11" fill="#E24B4A" rx="1"/>
  <rect x="700" y="92" width="11" height="11" fill="#E24B4A" rx="1"/>
  <rect x="712" y="92" width="11" height="11" fill="#E24B4A" rx="1"/>
  <rect x="724" y="92" width="11" height="11" fill="#E24B4A" rx="1"/>
  <rect x="736" y="92" width="11" height="11" fill="#E24B4A" rx="1"/>
</svg>
